<mxfile host="app.diagrams.net" agent="Mozilla/5.0 (X11; Linux x86_64) AppleWebKit/537.36 (KHTML, like Gecko) Chrome/137.0.0.0 Safari/537.36" version="27.2.0">
  <diagram name="Страница — 1" id="WXb1TLjajmDgSCdKRgBB">
    <mxGraphModel dx="2594" dy="1255" grid="0" gridSize="10" guides="1" tooltips="1" connect="1" arrows="1" fold="1" page="0" pageScale="1" pageWidth="827" pageHeight="1169" math="0" shadow="0">
      <root>
        <mxCell id="0" />
        <mxCell id="1" parent="0" />
        <object placeholders="1" c4Name="Пользователь" c4Type="Person" label="&lt;font&gt;&lt;b&gt;%c4Name%&lt;/b&gt;&lt;/font&gt;&lt;div&gt;[%c4Type%]&lt;/div&gt;" id="Bm_8-TILrClX63p2xbrm-1">
          <mxCell style="html=1;fontSize=16;dashed=0;whiteSpace=wrap;fillColor=#083F75;strokeColor=#06315C;fontColor=#ffffff;shape=mxgraph.c4.person2;align=center;metaEdit=1;points=[[0.5,0,0],[1,0.5,0],[1,0.75,0],[0.75,1,0],[0.5,1,0],[0.25,1,0],[0,0.75,0],[0,0.5,0]];resizable=0;textShadow=0;shadow=0;" vertex="1" parent="1">
            <mxGeometry x="-314" y="121" width="200" height="180" as="geometry" />
          </mxCell>
        </object>
        <object placeholders="1" c4Name="2GIS Places" c4Type="API" label="&lt;font&gt;&lt;b&gt;%c4Name%&lt;/b&gt;&lt;/font&gt;&lt;div&gt;[%c4Type%]&lt;/div&gt;" id="Bm_8-TILrClX63p2xbrm-3">
          <mxCell style="rounded=1;whiteSpace=wrap;html=1;labelBackgroundColor=none;fillColor=#8C8496;fontColor=#ffffff;align=center;arcSize=10;strokeColor=#736782;metaEdit=1;resizable=0;points=[[0.25,0,0],[0.5,0,0],[0.75,0,0],[1,0.25,0],[1,0.5,0],[1,0.75,0],[0.75,1,0],[0.5,1,0],[0.25,1,0],[0,0.75,0],[0,0.5,0],[0,0.25,0]];fontSize=16;textShadow=0;shadow=0;" vertex="1" parent="1">
            <mxGeometry x="449" y="121" width="240" height="120" as="geometry" />
          </mxCell>
        </object>
        <object placeholders="1" c4Name="OpenAI compatible" c4Type="API" label="&lt;font&gt;&lt;b&gt;%c4Name%&lt;/b&gt;&lt;/font&gt;&lt;div&gt;[%c4Type%]&lt;/div&gt;" id="Bm_8-TILrClX63p2xbrm-4">
          <mxCell style="rounded=1;whiteSpace=wrap;html=1;labelBackgroundColor=none;fillColor=#8C8496;fontColor=#ffffff;align=center;arcSize=10;strokeColor=#736782;metaEdit=1;resizable=0;points=[[0.25,0,0],[0.5,0,0],[0.75,0,0],[1,0.25,0],[1,0.5,0],[1,0.75,0],[0.75,1,0],[0.5,1,0],[0.25,1,0],[0,0.75,0],[0,0.5,0],[0,0.25,0]];fontSize=16;textShadow=0;shadow=0;" vertex="1" parent="1">
            <mxGeometry x="449" y="288" width="240" height="120" as="geometry" />
          </mxCell>
        </object>
        <object placeholders="1" c4Name="teplitsamenu.ru" c4Description="..." label="&lt;font&gt;&lt;b&gt;%c4Name%&lt;/b&gt;&lt;/font&gt;&lt;br&gt;&lt;div&gt;&lt;font&gt;&lt;font color=&quot;#cccccc&quot;&gt;%c4Description%&lt;/font&gt;&lt;/font&gt;&lt;/div&gt;" id="Bm_8-TILrClX63p2xbrm-7">
          <mxCell style="rounded=1;whiteSpace=wrap;html=1;labelBackgroundColor=none;fillColor=#1061B0;fontColor=#ffffff;align=center;arcSize=10;strokeColor=#0D5091;metaEdit=1;resizable=0;points=[[0.25,0,0],[0.5,0,0],[0.75,0,0],[1,0.25,0],[1,0.5,0],[1,0.75,0],[0.75,1,0],[0.5,1,0],[0.25,1,0],[0,0.75,0],[0,0.5,0],[0,0.25,0]];fontSize=16;textShadow=0;shadow=0;" vertex="1" parent="1">
            <mxGeometry x="30" y="198" width="240" height="120" as="geometry" />
          </mxCell>
        </object>
        <mxCell id="Bm_8-TILrClX63p2xbrm-10" style="edgeStyle=none;curved=1;rounded=0;orthogonalLoop=1;jettySize=auto;html=1;entryX=0;entryY=0.5;entryDx=0;entryDy=0;entryPerimeter=0;fontSize=16;startSize=8;endSize=8;textShadow=0;shadow=0;" edge="1" parent="1" source="Bm_8-TILrClX63p2xbrm-7" target="Bm_8-TILrClX63p2xbrm-3">
          <mxGeometry relative="1" as="geometry" />
        </mxCell>
        <mxCell id="Bm_8-TILrClX63p2xbrm-11" style="edgeStyle=none;curved=1;rounded=0;orthogonalLoop=1;jettySize=auto;html=1;entryX=0;entryY=0.5;entryDx=0;entryDy=0;entryPerimeter=0;fontSize=16;startSize=8;endSize=8;textShadow=0;shadow=0;" edge="1" parent="1" source="Bm_8-TILrClX63p2xbrm-7" target="Bm_8-TILrClX63p2xbrm-4">
          <mxGeometry relative="1" as="geometry" />
        </mxCell>
        <mxCell id="Bm_8-TILrClX63p2xbrm-12" style="edgeStyle=none;curved=1;rounded=0;orthogonalLoop=1;jettySize=auto;html=1;exitX=1;exitY=0.75;exitDx=0;exitDy=0;exitPerimeter=0;fontSize=16;startSize=8;endSize=8;textShadow=0;shadow=0;" edge="1" parent="1" source="Bm_8-TILrClX63p2xbrm-1" target="Bm_8-TILrClX63p2xbrm-7">
          <mxGeometry relative="1" as="geometry">
            <mxPoint x="30" y="56" as="targetPoint" />
          </mxGeometry>
        </mxCell>
        <mxCell id="Bm_8-TILrClX63p2xbrm-17" style="edgeStyle=none;curved=1;rounded=0;orthogonalLoop=1;jettySize=auto;html=1;fontSize=16;startSize=8;endSize=8;textShadow=0;shadow=0;" edge="1" parent="1" source="Bm_8-TILrClX63p2xbrm-13" target="Bm_8-TILrClX63p2xbrm-16">
          <mxGeometry relative="1" as="geometry" />
        </mxCell>
        <object placeholders="1" c4Name="Frontend" c4Type="Container" c4Technology="React или Gradio" c4Description="Фронтенд сайта с чатом, меню, корзиной" label="&lt;font&gt;&lt;b&gt;%c4Name%&lt;/b&gt;&lt;/font&gt;&lt;div&gt;[%c4Type%: %c4Technology%]&lt;/div&gt;&lt;br&gt;&lt;div&gt;&lt;font&gt;&lt;font color=&quot;#E6E6E6&quot;&gt;%c4Description%&lt;/font&gt;&lt;/font&gt;&lt;/div&gt;" id="Bm_8-TILrClX63p2xbrm-13">
          <mxCell style="rounded=1;whiteSpace=wrap;html=1;fontSize=16;labelBackgroundColor=none;fillColor=#23A2D9;fontColor=#ffffff;align=center;arcSize=10;strokeColor=#0E7DAD;metaEdit=1;resizable=0;points=[[0.25,0,0],[0.5,0,0],[0.75,0,0],[1,0.25,0],[1,0.5,0],[1,0.75,0],[0.75,1,0],[0.5,1,0],[0.25,1,0],[0,0.75,0],[0,0.5,0],[0,0.25,0]];textShadow=0;shadow=0;" vertex="1" parent="1">
            <mxGeometry x="-261" y="620" width="240" height="120" as="geometry" />
          </mxCell>
        </object>
        <object placeholders="1" c4Name="teplitsamenu.ru" c4Type="SystemScopeBoundary" c4Application="Software System" label="&lt;font&gt;&lt;b&gt;&lt;div style=&quot;text-align: left&quot;&gt;%c4Name%&lt;/div&gt;&lt;/b&gt;&lt;/font&gt;&lt;div style=&quot;text-align: left&quot;&gt;[%c4Application%]&lt;/div&gt;" id="Bm_8-TILrClX63p2xbrm-14">
          <mxCell style="rounded=1;fontSize=16;whiteSpace=wrap;html=1;dashed=1;arcSize=20;fillColor=none;strokeColor=#666666;fontColor=#333333;labelBackgroundColor=none;align=left;verticalAlign=bottom;labelBorderColor=none;spacingTop=0;spacing=10;dashPattern=8 4;metaEdit=1;rotatable=0;perimeter=rectanglePerimeter;noLabel=0;labelPadding=0;allowArrows=0;connectable=0;expand=0;recursiveResize=0;editable=1;pointerEvents=0;absoluteArcSize=1;points=[[0.25,0,0],[0.5,0,0],[0.75,0,0],[1,0.25,0],[1,0.5,0],[1,0.75,0],[0.75,1,0],[0.5,1,0],[0.25,1,0],[0,0.75,0],[0,0.5,0],[0,0.25,0]];textShadow=0;shadow=0;" vertex="1" parent="1">
            <mxGeometry x="-314" y="559" width="802" height="434" as="geometry" />
          </mxCell>
        </object>
        <mxCell id="Bm_8-TILrClX63p2xbrm-30" style="edgeStyle=none;curved=1;rounded=0;orthogonalLoop=1;jettySize=auto;html=1;fontSize=16;startSize=8;endSize=8;textShadow=0;shadow=0;" edge="1" parent="1" source="Bm_8-TILrClX63p2xbrm-16" target="Bm_8-TILrClX63p2xbrm-29">
          <mxGeometry relative="1" as="geometry" />
        </mxCell>
        <object placeholders="1" c4Name="Backend" c4Type="Container" c4Technology="FastAPI" c4Description="Обрабатывает запросы фронтенда, отправляет запросы в OpenAI API" label="&lt;font&gt;&lt;b&gt;%c4Name%&lt;/b&gt;&lt;/font&gt;&lt;div&gt;[%c4Type%: %c4Technology%]&lt;/div&gt;&lt;br&gt;&lt;div&gt;&lt;font&gt;&lt;font color=&quot;#E6E6E6&quot;&gt;%c4Description%&lt;/font&gt;&lt;/font&gt;&lt;/div&gt;" id="Bm_8-TILrClX63p2xbrm-16">
          <mxCell style="rounded=1;whiteSpace=wrap;html=1;fontSize=16;labelBackgroundColor=none;fillColor=#23A2D9;fontColor=#ffffff;align=center;arcSize=10;strokeColor=#0E7DAD;metaEdit=1;resizable=0;points=[[0.25,0,0],[0.5,0,0],[0.75,0,0],[1,0.25,0],[1,0.5,0],[1,0.75,0],[0.75,1,0],[0.5,1,0],[0.25,1,0],[0,0.75,0],[0,0.5,0],[0,0.25,0]];textShadow=0;shadow=0;" vertex="1" parent="1">
            <mxGeometry x="158" y="620" width="240" height="120" as="geometry" />
          </mxCell>
        </object>
        <object placeholders="1" c4Name="Backend" c4Type="ContainerScopeBoundary" c4Application="Container" label="&lt;font&gt;&lt;b&gt;&lt;div style=&quot;text-align: left&quot;&gt;%c4Name%&lt;/div&gt;&lt;/b&gt;&lt;/font&gt;&lt;div style=&quot;text-align: left&quot;&gt;[%c4Application%]&lt;/div&gt;" id="Bm_8-TILrClX63p2xbrm-18">
          <mxCell style="rounded=1;fontSize=16;whiteSpace=wrap;html=1;dashed=1;arcSize=20;fillColor=none;strokeColor=#666666;fontColor=#333333;labelBackgroundColor=none;align=left;verticalAlign=bottom;labelBorderColor=none;spacingTop=0;spacing=10;dashPattern=8 4;metaEdit=1;rotatable=0;perimeter=rectanglePerimeter;noLabel=0;labelPadding=0;allowArrows=0;connectable=0;expand=0;recursiveResize=0;editable=1;pointerEvents=0;absoluteArcSize=1;points=[[0.25,0,0],[0.5,0,0],[0.75,0,0],[1,0.25,0],[1,0.5,0],[1,0.75,0],[0.75,1,0],[0.5,1,0],[0.25,1,0],[0,0.75,0],[0,0.5,0],[0,0.25,0]];textShadow=0;shadow=0;" vertex="1" parent="1">
            <mxGeometry x="-314" y="1086" width="1278" height="1005" as="geometry" />
          </mxCell>
        </object>
        <object placeholders="1" c4Name="Парсинг меню" c4Type="Component" c4Technology="bs4" c4Description="Парсит меню с сайта teplitsamenu.ru" label="&lt;font&gt;&lt;b&gt;%c4Name%&lt;/b&gt;&lt;/font&gt;&lt;div&gt;[%c4Type%: %c4Technology%]&lt;/div&gt;&lt;br&gt;&lt;div&gt;&lt;font&gt;%c4Description%&lt;/font&gt;&lt;/div&gt;" id="Bm_8-TILrClX63p2xbrm-21">
          <mxCell style="rounded=1;whiteSpace=wrap;html=1;labelBackgroundColor=none;fillColor=#63BEF2;fontColor=#ffffff;align=center;arcSize=6;strokeColor=#2086C9;metaEdit=1;resizable=0;points=[[0.25,0,0],[0.5,0,0],[0.75,0,0],[1,0.25,0],[1,0.5,0],[1,0.75,0],[0.75,1,0],[0.5,1,0],[0.25,1,0],[0,0.75,0],[0,0.5,0],[0,0.25,0]];fontSize=16;textShadow=0;shadow=0;" vertex="1" parent="1">
            <mxGeometry x="166.5" y="1880" width="240" height="120" as="geometry" />
          </mxCell>
        </object>
        <object placeholders="1" c4Name="2GIS Places" c4Type="API" label="&lt;font&gt;&lt;b&gt;%c4Name%&lt;/b&gt;&lt;/font&gt;&lt;div&gt;[%c4Type%]&lt;/div&gt;" id="Bm_8-TILrClX63p2xbrm-23">
          <mxCell style="rounded=1;whiteSpace=wrap;html=1;labelBackgroundColor=none;fillColor=#8C8496;fontColor=#ffffff;align=center;arcSize=10;strokeColor=#736782;metaEdit=1;resizable=0;points=[[0.25,0,0],[0.5,0,0],[0.75,0,0],[1,0.25,0],[1,0.5,0],[1,0.75,0],[0.75,1,0],[0.5,1,0],[0.25,1,0],[0,0.75,0],[0,0.5,0],[0,0.25,0]];fontSize=16;textShadow=0;shadow=0;" vertex="1" parent="1">
            <mxGeometry x="601" y="543" width="240" height="120" as="geometry" />
          </mxCell>
        </object>
        <object placeholders="1" c4Name="OpenAI compatible" c4Type="API" label="&lt;font&gt;&lt;b&gt;%c4Name%&lt;/b&gt;&lt;/font&gt;&lt;div&gt;[%c4Type%]&lt;/div&gt;" id="Bm_8-TILrClX63p2xbrm-24">
          <mxCell style="rounded=1;whiteSpace=wrap;html=1;labelBackgroundColor=none;fillColor=#8C8496;fontColor=#ffffff;align=center;arcSize=10;strokeColor=#736782;metaEdit=1;resizable=0;points=[[0.25,0,0],[0.5,0,0],[0.75,0,0],[1,0.25,0],[1,0.5,0],[1,0.75,0],[0.75,1,0],[0.5,1,0],[0.25,1,0],[0,0.75,0],[0,0.5,0],[0,0.25,0]];fontSize=16;textShadow=0;shadow=0;" vertex="1" parent="1">
            <mxGeometry x="601" y="710" width="240" height="120" as="geometry" />
          </mxCell>
        </object>
        <mxCell id="Bm_8-TILrClX63p2xbrm-25" style="edgeStyle=none;curved=1;rounded=0;orthogonalLoop=1;jettySize=auto;html=1;entryX=0;entryY=0.5;entryDx=0;entryDy=0;entryPerimeter=0;fontSize=16;startSize=8;endSize=8;textShadow=0;shadow=0;" edge="1" target="Bm_8-TILrClX63p2xbrm-23" parent="1" source="Bm_8-TILrClX63p2xbrm-16">
          <mxGeometry relative="1" as="geometry">
            <mxPoint x="702" y="619" as="sourcePoint" />
          </mxGeometry>
        </mxCell>
        <mxCell id="Bm_8-TILrClX63p2xbrm-26" style="edgeStyle=none;curved=1;rounded=0;orthogonalLoop=1;jettySize=auto;html=1;entryX=0;entryY=0.5;entryDx=0;entryDy=0;entryPerimeter=0;fontSize=16;startSize=8;endSize=8;textShadow=0;shadow=0;" edge="1" target="Bm_8-TILrClX63p2xbrm-24" parent="1" source="Bm_8-TILrClX63p2xbrm-16">
          <mxGeometry relative="1" as="geometry">
            <mxPoint x="702" y="619" as="sourcePoint" />
          </mxGeometry>
        </mxCell>
        <mxCell id="Bm_8-TILrClX63p2xbrm-38" value="Передаёт новое &lt;br&gt;сообщение и историю" style="edgeStyle=none;curved=1;rounded=0;orthogonalLoop=1;jettySize=auto;html=1;fontSize=16;startSize=8;endSize=8;textShadow=0;shadow=0;" edge="1" parent="1" source="Bm_8-TILrClX63p2xbrm-27" target="Bm_8-TILrClX63p2xbrm-31">
          <mxGeometry relative="1" as="geometry" />
        </mxCell>
        <mxCell id="Bm_8-TILrClX63p2xbrm-42" value="При первом вызове&lt;br&gt;генерации" style="edgeStyle=none;curved=1;rounded=0;orthogonalLoop=1;jettySize=auto;html=1;fontSize=16;startSize=8;endSize=8;textShadow=0;shadow=0;" edge="1" parent="1" source="Bm_8-TILrClX63p2xbrm-27" target="Bm_8-TILrClX63p2xbrm-39">
          <mxGeometry relative="1" as="geometry" />
        </mxCell>
        <object placeholders="1" c4Name="API сервис" c4Type="Component" c4Technology="FastAPI" c4Description="Обрабатывает входящие запросы от фронтенда" label="&lt;font&gt;&lt;b&gt;%c4Name%&lt;/b&gt;&lt;/font&gt;&lt;div&gt;[%c4Type%: %c4Technology%]&lt;/div&gt;&lt;br&gt;&lt;div&gt;&lt;font&gt;%c4Description%&lt;/font&gt;&lt;/div&gt;" id="Bm_8-TILrClX63p2xbrm-27">
          <mxCell style="rounded=1;whiteSpace=wrap;html=1;labelBackgroundColor=none;fillColor=#63BEF2;fontColor=#ffffff;align=center;arcSize=6;strokeColor=#2086C9;metaEdit=1;resizable=0;points=[[0.25,0,0],[0.5,0,0],[0.75,0,0],[1,0.25,0],[1,0.5,0],[1,0.75,0],[0.75,1,0],[0.5,1,0],[0.25,1,0],[0,0.75,0],[0,0.5,0],[0,0.25,0]];fontSize=16;textShadow=0;shadow=0;" vertex="1" parent="1">
            <mxGeometry x="166.5" y="1143" width="240" height="120" as="geometry" />
          </mxCell>
        </object>
        <object placeholders="1" c4Name="Хранилище" c4Type="Container" c4Technology="JSON" c4Description="Хранит историю сообщений" label="&lt;font&gt;&lt;b&gt;%c4Name%&lt;/b&gt;&lt;/font&gt;&lt;div&gt;[%c4Type%:&amp;nbsp;%c4Technology%]&lt;/div&gt;&lt;br&gt;&lt;div&gt;&lt;font&gt;&lt;font color=&quot;#E6E6E6&quot;&gt;%c4Description%&lt;/font&gt;&lt;/font&gt;&lt;/div&gt;" id="Bm_8-TILrClX63p2xbrm-29">
          <mxCell style="shape=cylinder3;size=15;whiteSpace=wrap;html=1;boundedLbl=1;rounded=0;labelBackgroundColor=none;fillColor=#23A2D9;fontSize=16;fontColor=#ffffff;align=center;strokeColor=#0E7DAD;metaEdit=1;points=[[0.5,0,0],[1,0.25,0],[1,0.5,0],[1,0.75,0],[0.5,1,0],[0,0.75,0],[0,0.5,0],[0,0.25,0]];resizable=0;textShadow=0;shadow=0;" vertex="1" parent="1">
            <mxGeometry x="158" y="837" width="240" height="120" as="geometry" />
          </mxCell>
        </object>
        <object placeholders="1" c4Name="Генерация ответа" c4Type="Component" c4Technology="Сервис" c4Description="Формирует финальный ответ" label="&lt;font&gt;&lt;b&gt;%c4Name%&lt;/b&gt;&lt;/font&gt;&lt;div&gt;[%c4Type%: %c4Technology%]&lt;/div&gt;&lt;br&gt;&lt;div&gt;&lt;font&gt;%c4Description%&lt;/font&gt;&lt;/div&gt;" id="Bm_8-TILrClX63p2xbrm-31">
          <mxCell style="rounded=1;whiteSpace=wrap;html=1;labelBackgroundColor=none;fillColor=#63BEF2;fontColor=#ffffff;align=center;arcSize=6;strokeColor=#2086C9;metaEdit=1;resizable=0;points=[[0.25,0,0],[0.5,0,0],[0.75,0,0],[1,0.25,0],[1,0.5,0],[1,0.75,0],[0.75,1,0],[0.5,1,0],[0.25,1,0],[0,0.75,0],[0,0.5,0],[0,0.25,0]];fontSize=16;textShadow=0;shadow=0;" vertex="1" parent="1">
            <mxGeometry x="559" y="1509" width="240" height="120" as="geometry" />
          </mxCell>
        </object>
        <object placeholders="1" c4Name="2GIS Places" c4Type="API" label="&lt;font&gt;&lt;b&gt;%c4Name%&lt;/b&gt;&lt;/font&gt;&lt;div&gt;[%c4Type%]&lt;/div&gt;" id="Bm_8-TILrClX63p2xbrm-32">
          <mxCell style="rounded=1;whiteSpace=wrap;html=1;labelBackgroundColor=none;fillColor=#8C8496;fontColor=#ffffff;align=center;arcSize=10;strokeColor=#736782;metaEdit=1;resizable=0;points=[[0.25,0,0],[0.5,0,0],[0.75,0,0],[1,0.25,0],[1,0.5,0],[1,0.75,0],[0.75,1,0],[0.5,1,0],[0.25,1,0],[0,0.75,0],[0,0.5,0],[0,0.25,0]];fontSize=16;textShadow=0;shadow=0;" vertex="1" parent="1">
            <mxGeometry x="1041" y="1885.5" width="240" height="120" as="geometry" />
          </mxCell>
        </object>
        <object placeholders="1" c4Name="OpenAI compatible" c4Type="API" label="&lt;font&gt;&lt;b&gt;%c4Name%&lt;/b&gt;&lt;/font&gt;&lt;div&gt;[%c4Type%]&lt;/div&gt;" id="Bm_8-TILrClX63p2xbrm-33">
          <mxCell style="rounded=1;whiteSpace=wrap;html=1;labelBackgroundColor=none;fillColor=#8C8496;fontColor=#ffffff;align=center;arcSize=10;strokeColor=#736782;metaEdit=1;resizable=0;points=[[0.25,0,0],[0.5,0,0],[0.75,0,0],[1,0.25,0],[1,0.5,0],[1,0.75,0],[0.75,1,0],[0.5,1,0],[0.25,1,0],[0,0.75,0],[0,0.5,0],[0,0.25,0]];fontSize=16;textShadow=0;shadow=0;" vertex="1" parent="1">
            <mxGeometry x="1041" y="1512" width="240" height="120" as="geometry" />
          </mxCell>
        </object>
        <mxCell id="Bm_8-TILrClX63p2xbrm-34" style="edgeStyle=none;curved=1;rounded=0;orthogonalLoop=1;jettySize=auto;html=1;entryX=0;entryY=0.5;entryDx=0;entryDy=0;entryPerimeter=0;fontSize=16;startSize=8;endSize=8;textShadow=0;shadow=0;" edge="1" target="Bm_8-TILrClX63p2xbrm-32" parent="1" source="Bm_8-TILrClX63p2xbrm-36">
          <mxGeometry relative="1" as="geometry">
            <mxPoint x="1031.5" y="1577" as="sourcePoint" />
          </mxGeometry>
        </mxCell>
        <mxCell id="Bm_8-TILrClX63p2xbrm-35" style="edgeStyle=none;curved=1;rounded=0;orthogonalLoop=1;jettySize=auto;html=1;fontSize=16;startSize=8;endSize=8;textShadow=0;shadow=0;" edge="1" target="Bm_8-TILrClX63p2xbrm-33" parent="1" source="Bm_8-TILrClX63p2xbrm-31">
          <mxGeometry relative="1" as="geometry">
            <mxPoint x="711" y="1778" as="sourcePoint" />
          </mxGeometry>
        </mxCell>
        <object placeholders="1" c4Name="Дополнительная информация" c4Type="Component" c4Technology="Сервис" c4Description="Извлекает дополнительную информацию из 2GIS API" label="&lt;font&gt;&lt;b&gt;%c4Name%&lt;/b&gt;&lt;/font&gt;&lt;div&gt;[%c4Type%: %c4Technology%]&lt;/div&gt;&lt;br&gt;&lt;div&gt;&lt;font&gt;%c4Description%&lt;/font&gt;&lt;/div&gt;" id="Bm_8-TILrClX63p2xbrm-36">
          <mxCell style="rounded=1;whiteSpace=wrap;html=1;labelBackgroundColor=none;fillColor=#63BEF2;fontColor=#ffffff;align=center;arcSize=6;strokeColor=#2086C9;metaEdit=1;resizable=0;points=[[0.25,0,0],[0.5,0,0],[0.75,0,0],[1,0.25,0],[1,0.5,0],[1,0.75,0],[0.75,1,0],[0.5,1,0],[0.25,1,0],[0,0.75,0],[0,0.5,0],[0,0.25,0]];fontSize=16;textShadow=0;shadow=0;" vertex="1" parent="1">
            <mxGeometry x="559" y="1885.5" width="240" height="120" as="geometry" />
          </mxCell>
        </object>
        <mxCell id="Bm_8-TILrClX63p2xbrm-40" style="edgeStyle=none;curved=1;rounded=0;orthogonalLoop=1;jettySize=auto;html=1;fontSize=16;startSize=8;endSize=8;textShadow=0;shadow=0;" edge="1" parent="1" source="Bm_8-TILrClX63p2xbrm-39" target="Bm_8-TILrClX63p2xbrm-21">
          <mxGeometry relative="1" as="geometry" />
        </mxCell>
        <mxCell id="Bm_8-TILrClX63p2xbrm-41" style="edgeStyle=none;curved=1;rounded=0;orthogonalLoop=1;jettySize=auto;html=1;fontSize=16;startSize=8;endSize=8;textShadow=0;shadow=0;" edge="1" parent="1" source="Bm_8-TILrClX63p2xbrm-39" target="Bm_8-TILrClX63p2xbrm-36">
          <mxGeometry relative="1" as="geometry" />
        </mxCell>
        <object placeholders="1" c4Name="Инициализация чата" c4Type="Component" c4Technology="Сервис" c4Description="Формирует системный промпт" label="&lt;font&gt;&lt;b&gt;%c4Name%&lt;/b&gt;&lt;/font&gt;&lt;div&gt;[%c4Type%: %c4Technology%]&lt;/div&gt;&lt;br&gt;&lt;div&gt;&lt;font&gt;%c4Description%&lt;/font&gt;&lt;/div&gt;" id="Bm_8-TILrClX63p2xbrm-39">
          <mxCell style="rounded=1;whiteSpace=wrap;html=1;labelBackgroundColor=none;fillColor=#63BEF2;fontColor=#ffffff;align=center;arcSize=6;strokeColor=#2086C9;metaEdit=1;resizable=0;points=[[0.25,0,0],[0.5,0,0],[0.75,0,0],[1,0.25,0],[1,0.5,0],[1,0.75,0],[0.75,1,0],[0.5,1,0],[0.25,1,0],[0,0.75,0],[0,0.5,0],[0,0.25,0]];fontSize=16;textShadow=0;shadow=0;" vertex="1" parent="1">
            <mxGeometry x="166.5" y="1509" width="240" height="120" as="geometry" />
          </mxCell>
        </object>
        <object placeholders="1" c4Name="Хранилище" c4Type="Container" c4Technology="JSON" c4Description="Хранит историю сообщений" label="&lt;font&gt;&lt;b&gt;%c4Name%&lt;/b&gt;&lt;/font&gt;&lt;div&gt;[%c4Type%:&amp;nbsp;%c4Technology%]&lt;/div&gt;&lt;br&gt;&lt;div&gt;&lt;font&gt;&lt;font color=&quot;#E6E6E6&quot;&gt;%c4Description%&lt;/font&gt;&lt;/font&gt;&lt;/div&gt;" id="Bm_8-TILrClX63p2xbrm-43">
          <mxCell style="shape=cylinder3;size=15;whiteSpace=wrap;html=1;boundedLbl=1;rounded=0;labelBackgroundColor=none;fillColor=#23A2D9;fontSize=16;fontColor=#ffffff;align=center;strokeColor=#0E7DAD;metaEdit=1;points=[[0.5,0,0],[1,0.25,0],[1,0.5,0],[1,0.75,0],[0.5,1,0],[0,0.75,0],[0,0.5,0],[0,0.25,0]];resizable=0;textShadow=0;shadow=0;" vertex="1" parent="1">
            <mxGeometry x="-263" y="2167" width="240" height="120" as="geometry" />
          </mxCell>
        </object>
        <mxCell id="Bm_8-TILrClX63p2xbrm-46" style="edgeStyle=none;curved=1;rounded=0;orthogonalLoop=1;jettySize=auto;html=1;fontSize=16;startSize=8;endSize=8;textShadow=0;shadow=0;" edge="1" parent="1" source="Bm_8-TILrClX63p2xbrm-45" target="Bm_8-TILrClX63p2xbrm-43">
          <mxGeometry relative="1" as="geometry" />
        </mxCell>
        <object placeholders="1" c4Name="CRUD для сообщений" c4Type="Component" c4Technology="Сервис" c4Description="Предоставляет методы для манипуляций с хранилищем" label="&lt;font&gt;&lt;b&gt;%c4Name%&lt;/b&gt;&lt;/font&gt;&lt;div&gt;[%c4Type%: %c4Technology%]&lt;/div&gt;&lt;br&gt;&lt;div&gt;&lt;font&gt;%c4Description%&lt;/font&gt;&lt;/div&gt;" id="Bm_8-TILrClX63p2xbrm-45">
          <mxCell style="rounded=1;whiteSpace=wrap;html=1;labelBackgroundColor=none;fillColor=#63BEF2;fontColor=#ffffff;align=center;arcSize=6;strokeColor=#2086C9;metaEdit=1;resizable=0;points=[[0.25,0,0],[0.5,0,0],[0.75,0,0],[1,0.25,0],[1,0.5,0],[1,0.75,0],[0.75,1,0],[0.5,1,0],[0.25,1,0],[0,0.75,0],[0,0.5,0],[0,0.25,0]];fontSize=16;textShadow=0;shadow=0;" vertex="1" parent="1">
            <mxGeometry x="-263" y="1880" width="240" height="120" as="geometry" />
          </mxCell>
        </object>
        <mxCell id="Bm_8-TILrClX63p2xbrm-49" value="Добавляет и получает &lt;br&gt;сообщения" style="edgeStyle=none;curved=1;rounded=0;orthogonalLoop=1;jettySize=auto;html=1;fontSize=16;startSize=8;endSize=8;textShadow=0;shadow=0;" edge="1" parent="1" source="Bm_8-TILrClX63p2xbrm-27" target="Bm_8-TILrClX63p2xbrm-45">
          <mxGeometry relative="1" as="geometry" />
        </mxCell>
      </root>
    </mxGraphModel>
  </diagram>
</mxfile>
